<?xml version="1.0" encoding="UTF-8"?>
<!DOCTYPE svg PUBLIC "-//W3C//DTD SVG 1.1//EN" "http://www.w3.org/Graphics/SVG/1.1/DTD/svg11.dtd">
<svg xmlns="http://www.w3.org/2000/svg" version="1.1" width="225px" height="225px" style="shape-rendering:geometricPrecision; text-rendering:geometricPrecision; image-rendering:optimizeQuality; fill-rule:evenodd; clip-rule:evenodd" xmlns:xlink="http://www.w3.org/1999/xlink">
<g><path style="opacity:1" fill="#000000" d="M 111.5,6.5 C 118.286,24.1802 125.286,41.8469 132.5,59.5C 148.796,50.3664 164.963,41.0331 181,31.5C 175.365,49.2328 169.199,66.8994 162.5,84.5C 181.076,88.6525 199.743,92.4858 218.5,96C 202.139,105.176 186.139,114.842 170.5,125C 182.153,139.322 193.82,153.655 205.5,168C 186.826,165.499 168.16,162.666 149.5,159.5C 149.667,178.503 149.5,197.503 149,216.5C 136.646,202.313 124.479,187.98 112.5,173.5C 99.8689,187.422 87.7023,201.755 76,216.5C 74.9747,197.514 74.308,178.514 74,159.5C 55.5446,163.192 37.0446,166.359 18.5,169C 30.3114,154.354 42.3114,139.854 54.5,125.5C 38.5,115.833 22.5,106.167 6.5,96.5C 24.7352,92.5715 43.0686,89.0715 61.5,86C 55.2702,68.4785 48.9369,50.9785 42.5,33.5C 43.0016,32.479 43.6683,32.3123 44.5,33C 60.1797,42.5364 76.1797,51.3697 92.5,59.5C 98.6327,41.769 104.966,24.1024 111.5,6.5 Z"/></g>
<g><path style="opacity:1" fill="#89bbfa" d="M 111.5,33.5 C 116.816,46.4338 122.149,59.4338 127.5,72.5C 139.912,65.8791 152.078,58.8791 164,51.5C 160.034,64.8972 155.534,78.2306 150.5,91.5C 164.437,94.7125 178.437,97.7125 192.5,100.5C 180.464,107.848 168.464,115.181 156.5,122.5C 164.788,133.457 173.455,144.123 182.5,154.5C 168.807,153.498 155.14,151.498 141.5,148.5C 140.667,162.822 140.167,177.155 140,191.5C 130.646,180.981 121.48,170.314 112.5,159.5C 103.539,170.463 94.206,181.129 84.5,191.5C 83.5008,177.516 83.1674,163.516 83.5,149.5C 69.7638,151.447 56.0972,153.781 42.5,156.5C 41.479,155.998 41.3123,155.332 42,154.5C 50.9522,144.093 59.7855,133.593 68.5,123C 56.0015,115.918 43.6681,108.585 31.5,101C 45.4792,98.059 59.4792,95.2257 73.5,92.5C 68.5381,79.7814 63.8714,66.9481 59.5,54C 59.8499,52.7425 60.5165,52.4092 61.5,53C 73.0826,59.7074 84.5826,66.5407 96,73.5C 101.46,60.2523 106.627,46.919 111.5,33.5 Z"/></g>
</svg>
