<?xml version="1.0" encoding="UTF-8"?>
<!DOCTYPE svg PUBLIC "-//W3C//DTD SVG 1.1//EN" "http://www.w3.org/Graphics/SVG/1.1/DTD/svg11.dtd">
<svg xmlns="http://www.w3.org/2000/svg" version="1.1" width="600px" height="57px" style="shape-rendering:geometricPrecision; text-rendering:geometricPrecision; image-rendering:optimizeQuality; fill-rule:evenodd; clip-rule:evenodd" xmlns:xlink="http://www.w3.org/1999/xlink">
<g><path style="opacity:1" fill="#31b424" d="M 576.5,-0.5 C 580.167,-0.5 583.833,-0.5 587.5,-0.5C 592.887,2.55371 596.887,6.88704 599.5,12.5C 599.5,16.8333 599.5,21.1667 599.5,25.5C 591.546,41.941 578.546,47.7744 560.5,43C 553.091,41.045 546.258,37.8783 540,33.5C 537.553,50.2964 528.053,57.1297 511.5,54C 501.199,48.9134 498.866,41.4134 504.5,31.5C 506.524,29.6419 508.691,27.9752 511,26.5C 509.489,29.7337 508.322,33.2337 507.5,37C 509.588,46.3818 515.255,49.3818 524.5,46C 530.489,41.7872 531.989,36.2872 529,29.5C 520.517,17.1659 508.684,10.3326 493.5,9C 473.539,7.95315 453.872,9.95315 434.5,15C 404.42,22.3534 374.42,30.0201 344.5,38C 325.832,43.2864 306.832,45.2864 287.5,44C 279.558,43.0189 271.892,41.0189 264.5,38C 259.353,35.0123 254.186,32.1789 249,29.5C 223.852,36.0786 198.686,42.5786 173.5,49C 150.494,54.8154 127.161,56.8154 103.5,55C 94.7145,53.7381 86.3812,51.0715 78.5,47C 69.5,40.6667 60.5,34.3333 51.5,28C 38.968,19.6377 25.968,18.6377 12.5,25C 1.65332,34.9351 2.31999,43.9351 14.5,52C 19.9934,53.3581 24.8267,52.1914 29,48.5C 29.3152,49.9078 28.9819,51.2411 28,52.5C 25.9847,53.6966 24.1513,55.0299 22.5,56.5C 18.8333,56.5 15.1667,56.5 11.5,56.5C 6.11293,53.4463 2.11293,49.113 -0.5,43.5C -0.5,39.1667 -0.5,34.8333 -0.5,30.5C 7.45394,14.059 20.4539,8.22562 38.5,13C 45.9092,14.955 52.7425,18.1217 59,22.5C 61.4472,5.70363 70.9472,-1.12971 87.5,2C 97.8006,7.0866 100.134,14.5866 94.5,24.5C 92.4759,26.3581 90.3092,28.0248 88,29.5C 89.5111,26.2663 90.6778,22.7663 91.5,19C 89.4119,9.61822 83.7452,6.61822 74.5,10C 68.5114,14.2128 67.0114,19.7128 70,26.5C 78.4829,38.8341 90.3163,45.6674 105.5,47C 125.461,48.0468 145.128,46.0468 164.5,41C 194.58,33.6466 224.58,25.9799 254.5,18C 273.168,12.7136 292.168,10.7136 311.5,12C 319.442,12.9811 327.108,14.9811 334.5,18C 339.647,20.9877 344.814,23.8211 350,26.5C 375.148,19.9214 400.314,13.4214 425.5,7C 448.506,1.18457 471.839,-0.815426 495.5,1C 504.286,2.26187 512.619,4.92854 520.5,9C 529.5,15.3333 538.5,21.6667 547.5,28C 560.032,36.3623 573.032,37.3623 586.5,31C 597.347,21.0649 596.68,12.0649 584.5,4C 579.007,2.64189 574.173,3.80855 570,7.5C 569.685,6.09225 570.018,4.75891 571,3.5C 573.015,2.30342 574.849,0.970083 576.5,-0.5 Z M 306.5,20.5 C 319.708,20.0847 332.375,22.418 344.5,27.5C 325.738,31.7206 306.738,34.3873 287.5,35.5C 276.009,35.3354 265.009,33.0021 254.5,28.5C 271.788,24.6761 289.121,22.0094 306.5,20.5 Z"/></g>
</svg>
